# xmcd
#
# Track frame offsets:
#	150
#	13497
#	28921
#	49629
#	66392
#	84890
#	98823
#	117456
#	135355
#	153058
#	169191
#	182070
#
# Disc length: 2728 seconds
#
# Revision: 0
# Processed by: cddbd v1.5.1PL0 Copyright (c) Steve Scherf et al.
# Submitted via: audiograbber 1.83.01
#
DISCID=990aa60c
DTITLE=Loveless, Patty - Classics - Loveless, Patty - Classics
DYEAR=1999
DGENRE=Country
TTITLE0=Can't Get Enough
TTITLE1=You Can Feel Bad
TTITLE2=Lonely Too Long
TTITLE3=I Just Wanna Be Loved By You
TTITLE4=You Don't Even Know Who I Am
TTITLE5=Here I Am
TTITLE6=You Don't Seem To Miss Me
TTITLE7=Nothin' But The Wheel
TTITLE8=My Kind of woman, My Kind of Man
TTITLE9=Blame It On Your Heart
TTITLE10=I Try To Think About Elvis
TTITLE11=How Can I Help You Say Goodbye
EXTD=
EXTT0=
EXTT1=
EXTT2=
EXTT3=
EXTT4=
EXTT5=
EXTT6=
EXTT7=
EXTT8=
EXTT9=
EXTT10=
EXTT11=
PLAYORDER=
